HIERARCHY
ROOT Hips
{
  OFFSET 5.876 29.589 -237.631
  CHANNELS 6 Xposition Yposition Zposition Zrotation Xrotation Yrotation
  JOINT LeftUpLeg
  {
    OFFSET 7.626 -7.023 3.062
    CHANNELS 6 Xposition Yposition Zposition Zrotation Xrotation Yrotation
    JOINT LeftLeg
    {
      OFFSET -0.000 -51.471 0.000
      CHANNELS 6 Xposition Yposition Zposition Zrotation Xrotation Yrotation
      JOINT LeftFoot
      {
        OFFSET -0.000 -41.161 -0.000
        CHANNELS 6 Xposition Yposition Zposition Zrotation Xrotation Yrotation
        End Site
        {
          OFFSET 0.000 -8.672 5.007
        }
      }
    }
  }
  JOINT RightUpLeg
  {
    OFFSET -7.301 -7.335 2.802
    CHANNELS 6 Xposition Yposition Zposition Zrotation Xrotation Yrotation
    JOINT RightLeg
    {
      OFFSET -0.000 -49.420 0.000
      CHANNELS 6 Xposition Yposition Zposition Zrotation Xrotation Yrotation
      JOINT RightFoot
      {
        OFFSET -0.000 -44.566 -0.000
        CHANNELS 6 Xposition Yposition Zposition Zrotation Xrotation Yrotation
        End Site
        {
          OFFSET 0.000 -8.212 4.741
        }
      }
    }
  }
  JOINT Spine
  {
    OFFSET 0.000 5.506 -5.506
    CHANNELS 6 Xposition Yposition Zposition Zrotation Xrotation Yrotation
    JOINT LeftShoulder
    {
      OFFSET -0.000 36.046 0.000
      CHANNELS 6 Xposition Yposition Zposition Zrotation Xrotation Yrotation
      JOINT LeftArm
      {
        OFFSET 20.967 0.000 -0.000
        CHANNELS 6 Xposition Yposition Zposition Zrotation Xrotation Yrotation
        JOINT LeftForeArm
        {
          OFFSET 23.901 0.000 0.000
          CHANNELS 6 Xposition Yposition Zposition Zrotation Xrotation Yrotation
          JOINT LeftHand
          {
            OFFSET 28.393 -0.000 -0.000
            CHANNELS 6 Xposition Yposition Zposition Zrotation Xrotation Yrotation
            JOINT LeftHandThumb1
            {
            OFFSET 4.970 -0.620 3.390
            CHANNELS 6 Xposition Yposition Zposition Zrotation Xrotation Yrotation
              JOINT LeftHandThumb2
              {
              OFFSET 2.150 -0.000 0.000
              CHANNELS 6 Xposition Yposition Zposition Zrotation Xrotation Yrotation
                JOINT LeftHandThumb3
                {
                OFFSET 2.200 -0.000 0.000
                CHANNELS 6 Xposition Yposition Zposition Zrotation Xrotation Yrotation
                  JOINT LeftHandThumb4
                  {
                  OFFSET 1.700 -0.000 0.000
                  CHANNELS 6 Xposition Yposition Zposition Zrotation Xrotation Yrotation
                  }
                }
              }
            }
            JOINT LeftHandIndex1
            {
            OFFSET 8.730 0.680 2.070
            CHANNELS 6 Xposition Yposition Zposition Zrotation Xrotation Yrotation
              JOINT LeftHandIndex2
              {
              OFFSET 2.670 -0.000 0.000
              CHANNELS 6 Xposition Yposition Zposition Zrotation Xrotation Yrotation
                JOINT LeftHandIndex3
                {
                OFFSET 2.130 -0.000 0.000
                CHANNELS 6 Xposition Yposition Zposition Zrotation Xrotation Yrotation
                  JOINT LeftHandIndex4
                  {
                  OFFSET 1.800 -0.000 0.000
                  CHANNELS 6 Xposition Yposition Zposition Zrotation Xrotation Yrotation
                  }
                }
              }
            }
            JOINT LeftHandMiddle1
            {
            OFFSET 9.220 0.670 0.550
            CHANNELS 6 Xposition Yposition Zposition Zrotation Xrotation Yrotation
              JOINT LeftHandMiddle2
              {
              OFFSET 2.660 -0.000 0.000
              CHANNELS 6 Xposition Yposition Zposition Zrotation Xrotation Yrotation
                JOINT LeftHandMiddle3
                {
                OFFSET 2.280 -0.000 0.000
                CHANNELS 6 Xposition Yposition Zposition Zrotation Xrotation Yrotation
                  JOINT LeftHandMiddle4
                  {
                  OFFSET 1.500 -0.000 0.000
                  CHANNELS 6 Xposition Yposition Zposition Zrotation Xrotation Yrotation
                  }
                }
              }
            }
            JOINT LeftHandRing1
            {
            OFFSET 9.250 0.670 -1.130
            CHANNELS 6 Xposition Yposition Zposition Zrotation Xrotation Yrotation
              JOINT LeftHandRing2
              {
              OFFSET 2.470 -0.000 0.000
              CHANNELS 6 Xposition Yposition Zposition Zrotation Xrotation Yrotation
                JOINT LeftHandRing3
                {
                OFFSET 2.210 -0.000 0.000
                CHANNELS 6 Xposition Yposition Zposition Zrotation Xrotation Yrotation
                  JOINT LeftHandRing4
                  {
                  OFFSET 1.800 -0.000 0.000
                  CHANNELS 6 Xposition Yposition Zposition Zrotation Xrotation Yrotation
                  }
                }
              }
            }
            JOINT LeftHandPinky1
            {
            OFFSET 9.350 0.660 -2.720
            CHANNELS 6 Xposition Yposition Zposition Zrotation Xrotation Yrotation
              JOINT LeftHandPinky2
              {
              OFFSET 1.630 -0.000 0.000
              CHANNELS 6 Xposition Yposition Zposition Zrotation Xrotation Yrotation
                JOINT LeftHandPinky3
                {
                OFFSET 1.710 -0.000 0.000
                CHANNELS 6 Xposition Yposition Zposition Zrotation Xrotation Yrotation
                  JOINT LeftHandPinky4
                  {
                  OFFSET 1.800 -0.000 0.000
                  CHANNELS 6 Xposition Yposition Zposition Zrotation Xrotation Yrotation
                  }
                }
              }
            }
          }
        }
      }
    }
    JOINT RightShoulder
    {
      OFFSET -0.000 36.046 0.000
      CHANNELS 6 Xposition Yposition Zposition Zrotation Xrotation Yrotation
      JOINT RightArm
      {
        OFFSET -20.050 0.000 -0.000
        CHANNELS 6 Xposition Yposition Zposition Zrotation Xrotation Yrotation
        JOINT RightForeArm
        {
          OFFSET -24.867 0.000 0.000
          CHANNELS 6 Xposition Yposition Zposition Zrotation Xrotation Yrotation
          JOINT RightHand
          {
            OFFSET -27.415 0.000 -0.000
            CHANNELS 6 Xposition Yposition Zposition Zrotation Xrotation Yrotation
            JOINT RightHandThumb1
            {
            OFFSET -4.970 -0.620 3.390
            CHANNELS 6 Xposition Yposition Zposition Zrotation Xrotation Yrotation
              JOINT RightHandThumb2
              {
              OFFSET -2.150 0.000 0.000
              CHANNELS 6 Xposition Yposition Zposition Zrotation Xrotation Yrotation
                JOINT RightHandThumb3
                {
                OFFSET -2.200 0.000 0.000
                CHANNELS 6 Xposition Yposition Zposition Zrotation Xrotation Yrotation
                  JOINT RightHandThumb4
                  {
                  OFFSET -1.700 0.000 0.000
                  CHANNELS 6 Xposition Yposition Zposition Zrotation Xrotation Yrotation
                  }
                }
              }
            }
            JOINT RightHandIndex1
            {
            OFFSET -8.730 0.680 2.070
            CHANNELS 6 Xposition Yposition Zposition Zrotation Xrotation Yrotation
              JOINT RightHandIndex2
              {
              OFFSET -2.670 0.000 0.000
              CHANNELS 6 Xposition Yposition Zposition Zrotation Xrotation Yrotation
                JOINT RightHandIndex3
                {
                OFFSET -2.130 0.000 0.000
                CHANNELS 6 Xposition Yposition Zposition Zrotation Xrotation Yrotation
                  JOINT RightHandIndex4
                  {
                  OFFSET -1.800 0.000 0.000
                  CHANNELS 6 Xposition Yposition Zposition Zrotation Xrotation Yrotation
                  }
                }
              }
            }
            JOINT RightHandMiddle1
            {
            OFFSET -9.220 0.670 0.550
            CHANNELS 6 Xposition Yposition Zposition Zrotation Xrotation Yrotation
              JOINT RightHandMiddle2
              {
              OFFSET -2.660 0.000 0.000
              CHANNELS 6 Xposition Yposition Zposition Zrotation Xrotation Yrotation
                JOINT RightHandMiddle3
                {
                OFFSET -2.280 0.000 0.000
                CHANNELS 6 Xposition Yposition Zposition Zrotation Xrotation Yrotation
                  JOINT RightHandMiddle4
                  {
                  OFFSET -1.500 0.000 0.000
                  CHANNELS 6 Xposition Yposition Zposition Zrotation Xrotation Yrotation
                  }
                }
              }
            }
            JOINT RightHandRing1
            {
            OFFSET -9.250 0.670 -1.130
            CHANNELS 6 Xposition Yposition Zposition Zrotation Xrotation Yrotation
              JOINT RightHandRing2
              {
              OFFSET -2.470 0.000 0.000
              CHANNELS 6 Xposition Yposition Zposition Zrotation Xrotation Yrotation
                JOINT RightHandRing3
                {
                OFFSET -2.210 0.000 0.000
                CHANNELS 6 Xposition Yposition Zposition Zrotation Xrotation Yrotation
                  JOINT RightHandRing4
                  {
                  OFFSET -1.800 0.000 0.000
                  CHANNELS 6 Xposition Yposition Zposition Zrotation Xrotation Yrotation
                  }
                }
              }
            }
            JOINT RightHandPinky1
            {
            OFFSET -9.350 0.660 -2.720
            CHANNELS 6 Xposition Yposition Zposition Zrotation Xrotation Yrotation
              JOINT RightHandPinky2
              {
              OFFSET -1.630 0.000 0.000
              CHANNELS 6 Xposition Yposition Zposition Zrotation Xrotation Yrotation
                JOINT RightHandPinky3
                {
                OFFSET -1.710 0.000 0.000
                CHANNELS 6 Xposition Yposition Zposition Zrotation Xrotation Yrotation
                  JOINT RightHandPinky4
                  {
                  OFFSET -1.800 0.000 0.000
                  CHANNELS 6 Xposition Yposition Zposition Zrotation Xrotation Yrotation
                  }
                }
              }
            }
          }
        }
      }
    }
    JOINT Neck
    {
      OFFSET -0.000 36.046 0.000
      CHANNELS 6 Xposition Yposition Zposition Zrotation Xrotation Yrotation
      JOINT Head
      {
        OFFSET -0.000 17.203 -0.000
        CHANNELS 6 Xposition Yposition Zposition Zrotation Xrotation Yrotation
        End Site
        {
          OFFSET -0.000 0.069 -0.000
        }
      }
    }
  }
}
MOTION
Frames:	5
Frame Time:	0.0333333
44.3854 29.3637 -251.554 7.92137 27.0285 -20.0387 7.51041 -6.3973 3.53179 2.03912 -38.3552 3.34284 1.3411e-05 -52.6225 4.76837e-05 -5.4394 10.0652 0.953409 -4.47035e-06 -38.5848 -7.15256e-05 13.541 -9.57827 10.1214 -7.10083 -6.45991 4.25773 1.40087 -20.1977 -2.06296 5.96046e-06 -47.1742 2.38419e-05 15.4074 18.5627 -3.60251e-06 5.96046e-06 -46.6514 -2.38419e-05 8.68324 -66.1396 9.498 2.98023e-06 5.22092 -5.22099 1.25387 -26.4868 -0.808287 -1.49012e-05 36.0458 4.76837e-05 -36.121 1.70755e-05 -0.0969452 20.7932 -1.78814e-05 -7.15256e-05 -30.9529 42.3507 -6.85973 23.7024 5.96046e-05 7.15256e-05 -1.43352e-07 -3.20824e-06 -95.1168 26.8504 -4.76837e-05 0 25.7237 -0.542843 -5.88874 0.0062 0.0497 0.0339 0 0 0 0 0.0215 0 0 0 0 0 0.022 0 0 0 0 0 0.017 0 0 0 0 -0.0068 0.0873 0.0207 0 0 0 0 0.0267 0 0 0 0 0 0.0213 0 0 0 0 0 0.018 0 0 0 0 -0.0067 0.0922 0.0055 0 0 0 0 0.0266 0 0 0 0 0 0.0228 0 0 0 0 0 0.015 0 0 0 0 -0.0067 0.0925 -0.0113 0 0 0 0 0.0247 0 0 0 0 0 0.0221 0 0 0 0 0 0.018 0 0 0 0 -0.0066 0.0935 -0.0272 0 0 0 0 0.0163 0 0 0 0 0 0.0171 0 0 0 0 0 0.018 0 0 0 0 -1.49012e-05 36.0458 4.76837e-05 28.509 0 0.104654 -19.2594 2.38419e-05 -7.15256e-05 42.1132 32.6654 0.926705 -24.3764 1.78814e-05 7.15256e-05 0.000593365 6.83021e-06 89.1755 -29.3498 -5.96046e-06 -1.49012e-06 -19.6459 -0.064249 -23.1903 -0.0062 0.0497 0.0339 0 0 0 0 0.0215 0 0 0 0 0 0.022 0 0 0 0 0 0.017 0 0 0 0 0.0068 0.0873 0.0207 0 0 0 0 0.0267 0 0 0 0 0 0.0213 0 0 0 0 0 0.018 0 0 0 0 0.0067 0.0922 0.0055 0 0 0 0 0.0266 0 0 0 0 0 0.0228 0 0 0 0 0 0.015 0 0 0 0 0.0067 0.0925 -0.0113 0 0 0 0 0.0247 0 0 0 0 0 0.0221 0 0 0 0 0 0.018 0 0 0 0 0.0066 0.0935 -0.0272 0 0 0 0 0.0163 0 0 0 0 0 0.0171 0 0 0 0 0 0.018 0 0 0 0 -1.49012e-05 36.0458 4.76837e-05 -1.06562 13.2366 0.244024 1.78814e-05 18.6165 -7.15256e-05 1.06722e-05 -8.53774e-06 -5.12264e-06 
45.3333 29.1637 -254.132 9.12257 27.3404 -20.9513 7.50031 -6.39319 3.49243 1.20282 -41.0832 3.04664 -7.45058e-06 -53.3655 9.53674e-05 -5.21507 9.98042 0.906266 2.98023e-06 -38.6505 -7.15256e-05 13.8737 -8.6525 10.1639 -7.07601 -6.44222 4.29749 0.50365 -19.4319 -0.973068 1.19209e-05 -46.1488 9.53674e-05 16.6324 14.5401 5.29214e-06 -1.78814e-05 -47.138 -0.000143051 6.25869 -68.1163 6.86281 8.9407e-06 5.2108 -5.21078 1.24969 -26.554 -0.867645 -2.98023e-06 36.0458 -7.15256e-05 -36.6111 1.45142e-05 -0.107071 20.7833 0 4.76837e-05 -30.0523 43.8688 -6.79038 23.525 -2.38419e-05 1.19209e-05 2.72185e-05 -2.13395e-06 -95.4883 27.3823 3.57628e-05 0 -1.21594 0.396216 -7.23985 0.0062 0.0497 0.0339 0 0 0 0 0.0215 0 0 0 0 0 0.022 0 0 0 0 0 0.017 0 0 0 0 -0.0068 0.0873 0.0207 0 0 0 0 0.0267 0 0 0 0 0 0.0213 0 0 0 0 0 0.018 0 0 0 0 -0.0067 0.0922 0.0055 0 0 0 0 0.0266 0 0 0 0 0 0.0228 0 0 0 0 0 0.015 0 0 0 0 -0.0067 0.0925 -0.0113 0 0 0 0 0.0247 0 0 0 0 0 0.0221 0 0 0 0 0 0.018 0 0 0 0 -0.0066 0.0935 -0.0272 0 0 0 0 0.0163 0 0 0 0 0 0.0171 0 0 0 0 0 0.018 0 0 0 0 -2.98023e-06 36.0458 -7.15256e-05 28.3042 -2.56132e-06 0.114525 -19.4298 0 9.53674e-05 41.2378 37.041 1.8531 -24.2196 -5.96046e-06 -2.38419e-05 -6.8108e-08 8.58617e-06 90.9087 -29.3215 -5.96046e-06 5.96046e-06 -20.6386 -0.0470985 -14.6627 -0.0062 0.0497 0.0339 0 0 0 0 0.0215 0 0 0 0 0 0.022 0 0 0 0 0 0.017 0 0 0 0 0.0068 0.0873 0.0207 0 0 0 0 0.0267 0 0 0 0 0 0.0213 0 0 0 0 0 0.018 0 0 0 0 0.0067 0.0922 0.0055 0 0 0 0 0.0266 0 0 0 0 0 0.0228 0 0 0 0 0 0.015 0 0 0 0 0.0067 0.0925 -0.0113 0 0 0 0 0.0247 0 0 0 0 0 0.0221 0 0 0 0 0 0.018 0 0 0 0 0.0066 0.0935 -0.0272 0 0 0 0 0.0163 0 0 0 0 0 0.0171 0 0 0 0 0 0.018 0 0 0 0 -2.98023e-06 36.0458 -7.15256e-05 -1.04538 13.286 0.24027 0 18.716 -2.38419e-05 1.06722e-05 -1.10991e-05 -6.83019e-06 
45.3333 29.1637 -254.132 9.12257 27.3404 -20.9513 7.50031 -6.39319 3.49243 1.20282 -41.0832 3.04664 -7.45058e-06 -53.3655 9.53674e-05 -5.21507 9.98042 0.906266 2.98023e-06 -38.6505 -7.15256e-05 13.8737 -8.6525 10.1639 -7.07601 -6.44222 4.29749 0.50365 -19.4319 -0.973068 1.19209e-05 -46.1488 9.53674e-05 16.6324 14.5401 5.29214e-06 -1.78814e-05 -47.138 -0.000143051 6.25869 -68.1163 6.86281 8.9407e-06 5.2108 -5.21078 1.24969 -26.554 -0.867645 -2.98023e-06 36.0458 -7.15256e-05 -36.6111 1.45142e-05 -0.107071 20.7833 0 4.76837e-05 -30.0523 43.8688 -6.79038 23.525 -2.38419e-05 1.19209e-05 2.72185e-05 -2.13395e-06 -95.4883 27.3823 3.57628e-05 0 -1.21594 0.396216 -7.23985 0.0062 0.0497 0.0339 0 0 0 0 0.0215 0 0 0 0 0 0.022 0 0 0 0 0 0.017 0 0 0 0 -0.0068 0.0873 0.0207 0 0 0 0 0.0267 0 0 0 0 0 0.0213 0 0 0 0 0 0.018 0 0 0 0 -0.0067 0.0922 0.0055 0 0 0 0 0.0266 0 0 0 0 0 0.0228 0 0 0 0 0 0.015 0 0 0 0 -0.0067 0.0925 -0.0113 0 0 0 0 0.0247 0 0 0 0 0 0.0221 0 0 0 0 0 0.018 0 0 0 0 -0.0066 0.0935 -0.0272 0 0 0 0 0.0163 0 0 0 0 0 0.0171 0 0 0 0 0 0.018 0 0 0 0 -2.98023e-06 36.0458 -7.15256e-05 28.3042 -2.56132e-06 0.114525 -19.4298 0 9.53674e-05 41.2378 37.041 1.8531 -24.2196 -5.96046e-06 -2.38419e-05 -6.8108e-08 8.58617e-06 90.9087 -29.3215 -5.96046e-06 5.96046e-06 -20.6386 -0.0470985 -14.6627 -0.0062 0.0497 0.0339 0 0 0 0 0.0215 0 0 0 0 0 0.022 0 0 0 0 0 0.017 0 0 0 0 0.0068 0.0873 0.0207 0 0 0 0 0.0267 0 0 0 0 0 0.0213 0 0 0 0 0 0.018 0 0 0 0 0.0067 0.0922 0.0055 0 0 0 0 0.0266 0 0 0 0 0 0.0228 0 0 0 0 0 0.015 0 0 0 0 0.0067 0.0925 -0.0113 0 0 0 0 0.0247 0 0 0 0 0 0.0221 0 0 0 0 0 0.018 0 0 0 0 0.0066 0.0935 -0.0272 0 0 0 0 0.0163 0 0 0 0 0 0.0171 0 0 0 0 0 0.018 0 0 0 0 -2.98023e-06 36.0458 -7.15256e-05 -1.04538 13.286 0.24027 0 18.716 -2.38419e-05 1.06722e-05 -1.10991e-05 -6.83019e-06 
45.8213 29.1098 -255.598 9.68518 27.988 -21.3786 7.49497 -6.36626 3.52254 1.10697 -43.192 2.91688 -4.47035e-06 -53.7481 -2.38419e-05 -5.18635 10.4744 0.945352 4.47035e-06 -38.7053 -2.38419e-05 14.0891 -8.20406 10.2189 -7.06673 -6.43862 4.34394 0.0283332 -19.802 -0.621472 -1.78814e-05 -45.6211 7.15256e-05 17.4636 12.666 0 5.96046e-06 -47.3354 -7.15256e-05 5.01564 -68.2586 5.51168 -2.98023e-06 5.19385 -5.19392 1.27691 -26.919 -0.770987 -8.9407e-06 36.0458 2.38419e-05 -36.7342 7.68396e-06 -0.0350517 20.7133 1.93715e-05 7.15256e-05 -29.0765 44.3806 -7.62416 23.5111 -1.19209e-05 -3.57628e-05 7.17208e-05 -4.70505e-06 -95.4397 27.609 -3.57628e-05 -3.57628e-05 -8.84905 0.614809 -6.00775 0.0062 0.0497 0.0339 0 0 0 0 0.0215 0 0 0 0 0 0.022 0 0 0 0 0 0.017 0 0 0 0 -0.0068 0.0873 0.0207 0 0 0 0 0.0267 0 0 0 0 0 0.0213 0 0 0 0 0 0.018 0 0 0 0 -0.0067 0.0922 0.0055 0 0 0 0 0.0266 0 0 0 0 0 0.0228 0 0 0 0 0 0.015 0 0 0 0 -0.0067 0.0925 -0.0113 0 0 0 0 0.0247 0 0 0 0 0 0.0221 0 0 0 0 0 0.018 0 0 0 0 -0.0066 0.0935 -0.0272 0 0 0 0 0.0163 0 0 0 0 0 0.0171 0 0 0 0 0 0.018 0 0 0 0 -8.9407e-06 36.0458 2.38419e-05 28.2937 -8.53774e-07 0.0370965 -19.5688 -2.38419e-05 -2.38419e-05 40.8998 37.7494 2.38627 -24.157 -1.19209e-05 -4.76837e-05 -0.000191291 5.08396e-06 91.0335 -29.3964 2.38419e-05 -5.96046e-06 -21.5393 -0.215867 -10.7456 -0.0062 0.0497 0.0339 0 0 0 0 0.0215 0 0 0 0 0 0.022 0 0 0 0 0 0.017 0 0 0 0 0.0068 0.0873 0.0207 0 0 0 0 0.0267 0 0 0 0 0 0.0213 0 0 0 0 0 0.018 0 0 0 0 0.0067 0.0922 0.0055 0 0 0 0 0.0266 0 0 0 0 0 0.0228 0 0 0 0 0 0.015 0 0 0 0 0.0067 0.0925 -0.0113 0 0 0 0 0.0247 0 0 0 0 0 0.0221 0 0 0 0 0 0.018 0 0 0 0 0.0066 0.0935 -0.0272 0 0 0 0 0.0163 0 0 0 0 0 0.0171 0 0 0 0 0 0.018 0 0 0 0 -8.9407e-06 36.0458 2.38419e-05 -0.450651 13.3072 0.103739 -2.98023e-06 18.7122 4.76837e-05 1.10991e-05 -1.10991e-05 0 
46.2664 29.079 -256.958 10.226 28.4931 -21.6969 7.49383 -6.34509 3.58229 0.851232 -45.0415 2.60143 4.47035e-06 -54.0729 -4.76837e-05 -5.11717 10.8709 0.967563 -1.49012e-06 -38.783 -4.76837e-05 14.3091 -7.71243 10.2638 -7.06201 -6.41975 4.37644 0.71151 -22.0547 -0.952638 0 -45.4761 -2.38419e-05 16.1158 14.8288 0 -1.78814e-05 -47.5393 -2.38419e-05 4.1485 -68.7368 4.56158 2.98023e-06 5.17861 -5.17862 1.3121 -27.3674 -0.657892 5.96046e-06 36.0458 -4.76837e-05 -36.7448 1.79292e-05 -0.123522 20.6839 -5.96046e-06 4.76837e-05 -29.4007 44.5974 -6.38778 23.5496 3.57628e-05 4.76837e-05 9.4077e-05 -2.72441e-05 -96.4942 27.8683 1.19209e-05 1.19209e-05 -11.132 0.527494 -4.72026 0.0062 0.0497 0.0339 0 0 0 0 0.0215 0 0 0 0 0 0.022 0 0 0 0 0 0.017 0 0 0 0 -0.0068 0.0873 0.0207 0 0 0 0 0.0267 0 0 0 0 0 0.0213 0 0 0 0 0 0.018 0 0 0 0 -0.0067 0.0922 0.0055 0 0 0 0 0.0266 0 0 0 0 0 0.0228 0 0 0 0 0 0.015 0 0 0 0 -0.0067 0.0925 -0.0113 0 0 0 0 0.0247 0 0 0 0 0 0.0221 0 0 0 0 0 0.018 0 0 0 0 -0.0066 0.0935 -0.0272 0 0 0 0 0.0163 0 0 0 0 0 0.0171 0 0 0 0 0 0.018 0 0 0 0 5.96046e-06 36.0458 -4.76837e-05 28.4078 3.84198e-06 0.13011 -19.6346 1.19209e-05 4.76837e-05 41.2001 39.641 2.35111 -23.8749 -1.19209e-05 -2.38419e-05 0.000136469 1.02706e-05 91.5046 -29.4045 0 -7.45058e-06 -22.5661 -0.283939 -8.65957 -0.0062 0.0497 0.0339 0 0 0 0 0.0215 0 0 0 0 0 0.022 0 0 0 0 0 0.017 0 0 0 0 0.0068 0.0873 0.0207 0 0 0 0 0.0267 0 0 0 0 0 0.0213 0 0 0 0 0 0.018 0 0 0 0 0.0067 0.0922 0.0055 0 0 0 0 0.0266 0 0 0 0 0 0.0228 0 0 0 0 0 0.015 0 0 0 0 0.0067 0.0925 -0.0113 0 0 0 0 0.0247 0 0 0 0 0 0.0221 0 0 0 0 0 0.018 0 0 0 0 0.0066 0.0935 -0.0272 0 0 0 0 0.0163 0 0 0 0 0 0.0171 0 0 0 0 0 0.018 0 0 0 0 5.96046e-06 36.0458 -4.76837e-05 -0.188109 13.8531 0.0450386 -1.49012e-05 18.7235 2.38419e-05 1.02453e-05 -1.28066e-05 1.70755e-06 
